<svg width="157" height="121" viewBox="0 0 157 121" fill="none" xmlns="http://www.w3.org/2000/svg">
<rect x="89" y="94" width="27" height="27" fill="#5E239D" fill-opacity="0.4"/>
<rect x="130" y="76" width="27" height="27" fill="#5E239D" fill-opacity="0.4"/>
<rect x="45" y="76" width="27" height="27" fill="#5E239D" fill-opacity="0.4"/>
<rect x="4" y="94" width="27" height="27" fill="#5E239D" fill-opacity="0.4"/>
<rect x="71" y="4" width="27" height="27" fill="#5E239D" fill-opacity="0.4"/>
<rect x="67.6" y="1" width="25" height="25" stroke="#ED5C35" stroke-width="2"/>
<path d="M12.6 90.9001L12.6 44.1001H54.9M139.5 73.8001V44.1001H96.3M96.3 90.9001V44.1001M96.3 44.1001H80.1M54.9 73.8001V44.1001M54.9 44.1001H80.1M80.1 26.1001V44.1001" stroke="#ED5C35" stroke-width="2"/>
<rect x="1" y="91" width="25" height="25" stroke="#ED5C35" stroke-width="2"/>
<rect x="42.4" y="73" width="25" height="25" stroke="#ED5C35" stroke-width="2"/>
<rect x="85.6" y="91" width="25" height="25" stroke="#ED5C35" stroke-width="2"/>
<rect x="127" y="73" width="25" height="25" stroke="#ED5C35" stroke-width="2"/>
</svg>
