<svg width="110" height="109" viewBox="0 0 110 109" fill="none" xmlns="http://www.w3.org/2000/svg">
<path d="M98.0679 71.1502C98.7106 70.6906 99.0778 69.9551 98.986 69.1278C98.2516 63.0605 90.5396 61.2219 89.7133 61.0381C89.5297 61.0381 89.3461 61.0381 89.1625 61.13L86.5 63.2444L83.8375 61.13C83.6539 61.0381 83.4703 60.9461 83.2867 61.0381C82.3686 61.2219 74.7484 63.1524 74.014 69.1278C73.9222 69.9551 74.2894 70.6906 74.9321 71.1502C76.401 72.1614 79.8897 74 86.5 74C93.0184 74 96.5072 72.2534 98.0679 71.1502ZM86.3164 72.713C79.8897 72.713 76.6764 70.8744 75.5747 70.139C75.2993 69.9551 74.9321 70.087 74.9321 69.7193C76.7534 74.6761 91.0828 72.4102 92.5518 72.0424L85.9491 64.5314C86.2246 64.7152 83.5621 69.4955 83.8375 69.3116L86.4082 64.6676C80.0577 68.2029 81.5721 72.7903 96.3378 71.2357C96.3378 71.6034 97.4253 69.9551 97.1499 70.139C96.0481 70.8744 93.6779 71.1502 87.2513 71.1502L86.3164 72.713C86.4082 72.713 86.4082 72.713 86.3164 72.713Z" fill="#5E239D" fill-opacity="0.4"/>
<path d="M49.0679 98.1502C49.7106 97.6906 50.0778 96.9551 49.986 96.1278C49.2516 90.0605 41.5396 88.2219 40.7133 88.0381C40.5297 88.0381 40.3461 88.0381 40.1625 88.13L37.5 90.2444L34.8375 88.13C34.6539 88.0381 34.4703 87.9461 34.2867 88.0381C33.3686 88.2219 25.7484 90.1524 25.014 96.1278C24.9222 96.9551 25.2894 97.6906 25.9321 98.1502C27.401 99.1614 30.8897 101 37.5 101C44.0184 101 47.5072 99.2534 49.0679 98.1502ZM37.3164 99.713C30.8897 99.713 27.6764 97.8744 26.5747 97.139C26.2993 96.9551 25.9321 97.087 25.9321 96.7193C27.7534 101.676 42.0828 99.4102 43.5518 99.0424L36.9491 91.5314C37.2246 91.7152 34.5621 96.4955 34.8375 96.3116L37.4082 91.6676C31.0577 95.2029 32.5721 99.7903 47.3378 98.2357C47.3378 98.6034 48.4253 96.9551 48.1499 97.139C47.0481 97.8744 44.6779 98.1502 38.2513 98.1502L37.3164 99.713C37.4082 99.713 37.4082 99.713 37.3164 99.713Z" fill="#5E239D" fill-opacity="0.4"/>
<path d="M47.7848 45.3873C48.6336 44.781 49.1185 43.8111 48.9973 42.7199C48.0273 34.7176 37.8427 32.2927 36.7515 32.0502C36.509 32.0502 36.2665 32.0502 36.024 32.1715L32.5079 34.9601L28.9917 32.1715C28.7493 32.0502 28.5068 31.929 28.2643 32.0502C27.0518 32.2927 16.9884 34.8389 16.0184 42.7199C15.8972 43.8111 16.3822 44.781 17.2309 45.3873C19.1708 46.721 23.7782 49.1459 32.5079 49.1459C41.1163 49.1459 45.7237 46.8422 47.7848 45.3873ZM32.2654 47.4484C23.7782 47.4484 19.5346 45.0235 18.0796 44.0536C17.7159 43.8111 17.2309 43.985 17.2309 43.5C19.6363 50.0377 38.5601 47.049 40.5 46.564L31.7804 36.6576C32.1441 36.9001 28.628 43.2048 28.9917 42.9623L32.3866 36.8372C24 41.5 26 47.5504 45.5 45.5C45.5 45.985 46.9361 43.8111 46.5724 44.0536C45.1174 45.0235 41.9872 45.3873 33.5 45.3873L32.2654 47.4484C32.3866 47.4484 32.3866 47.4484 32.2654 47.4484Z" fill="#5E239D" fill-opacity="0.4"/>
<path d="M28.9777 28.2503C33.7063 28.2503 37.7074 24.128 37.7074 19.1569C37.7074 14.1858 33.8276 10.0635 28.9777 10.0635C24.1279 10.0635 20.248 14.1858 20.248 19.1569C20.248 24.128 24.1279 28.2503 28.9777 28.2503ZM28.9777 11.7609C32.8576 11.7609 36.01 15.0346 36.01 19.1569C36.01 23.2793 32.8576 26.5529 28.9777 26.5529C25.0979 26.5529 21.9455 23.2793 21.9455 19.1569C21.9455 15.0346 25.0979 11.7609 28.9777 11.7609Z" fill="#ED5C35"/>
<path d="M44.376 42.1934C45.2247 41.5872 45.7097 40.6172 45.5884 39.526C44.6185 31.5238 34.4338 29.0989 33.3426 28.8564C33.1001 28.8564 32.8576 28.8564 32.6151 28.9776L29.099 31.7663L25.5829 28.9776C25.3404 28.8564 25.0979 28.7351 24.8554 28.8564C23.6429 29.0989 13.5795 31.645 12.6096 39.526C12.4883 40.6172 12.9733 41.5872 13.822 42.1934C15.762 43.5271 20.3693 45.952 29.099 45.952C37.7075 45.952 42.3148 43.6484 44.376 42.1934ZM28.8565 44.2546C20.3693 44.2546 16.1257 41.8297 14.6707 40.8597C14.307 40.6172 14.1858 40.2535 14.1858 39.7685C14.9132 33.4637 22.7942 31.0388 24.7341 30.5538L28.3715 33.4637C28.7353 33.7062 29.099 33.7062 29.4627 33.4637L33.1001 30.5538C35.1613 31.0388 42.921 33.4637 43.6485 39.7685C43.6485 40.2535 43.5272 40.6172 43.1635 40.8597C41.7086 41.8297 37.465 44.2546 28.9778 44.2546H28.8565C28.9778 44.2546 28.9778 44.2546 28.8565 44.2546Z" fill="#ED5C35"/>
<path d="M83.9021 58.3192C87.6607 58.3192 90.5706 55.1668 90.5706 51.2869C90.5706 47.407 87.5395 44.2546 83.9021 44.2546C80.1435 44.2546 77.2336 47.407 77.2336 51.2869C77.2336 55.1668 80.2647 58.3192 83.9021 58.3192ZM83.9021 46.0733C86.6908 46.0733 88.9944 48.4982 88.9944 51.4081C88.9944 54.318 86.6908 56.743 83.9021 56.743C81.1134 56.743 78.8098 54.318 78.8098 51.4081C78.931 48.377 81.2347 46.0733 83.9021 46.0733Z" fill="#ED5C35"/>
<path d="M95.5417 68.6251C96.2692 68.1402 96.6329 67.2914 96.5117 66.4427C95.7842 60.3804 88.0245 58.4405 87.1757 58.198C86.9333 58.198 86.6908 58.198 86.4483 58.3192L84.0234 60.2592L81.5984 58.3192C81.3559 58.198 81.1134 58.198 80.871 58.198C80.0222 58.4405 72.2625 60.2592 71.535 66.4427C71.4138 67.2914 71.7775 68.1402 72.505 68.6251C73.96 69.7163 77.4761 71.4138 84.0234 71.4138C90.5706 71.535 94.0868 69.7163 95.5417 68.6251ZM83.9021 69.8376C77.5973 69.8376 74.4449 68.0189 73.3537 67.2914C73.1112 67.1702 72.99 66.9277 73.1112 66.6852C73.7175 62.1991 79.1735 60.3804 80.7497 60.0167L83.4171 62.0779C83.7809 62.3204 84.1446 62.3204 84.5083 62.0779L87.1757 60.0167C88.7519 60.5017 94.3292 62.1991 94.8142 66.6852C94.8142 66.9277 94.693 67.1702 94.5717 67.2914C93.4805 68.0189 90.3281 69.8376 84.0234 69.8376C84.1446 69.8376 84.0233 69.8376 83.9021 69.8376C84.0233 69.8376 83.9021 69.8376 83.9021 69.8376Z" fill="#ED5C35"/>
<path d="M34.7975 84.9932C38.5562 84.9932 41.4661 81.8408 41.4661 77.961C41.4661 74.0811 38.4349 70.9287 34.7975 70.9287C31.1602 70.9287 28.129 74.0811 28.129 77.961C28.129 81.8408 31.0389 84.9932 34.7975 84.9932ZM34.7975 72.7474C37.5862 72.7474 39.8899 75.1723 39.8899 78.0822C39.8899 80.9921 37.5862 83.417 34.7975 83.417C32.0089 83.417 29.7052 80.9921 29.7052 78.0822C29.7052 75.1723 32.0089 72.7474 34.7975 72.7474Z" fill="#ED5C35"/>
<path d="M38.0712 84.8721C37.8287 84.8721 37.5862 84.8721 37.3437 84.9933L34.9188 86.9332L32.4939 84.9933C32.1301 84.8721 31.8877 84.8721 31.6452 84.8721C30.7964 85.1146 23.0367 86.9333 22.3092 93.1168C22.188 93.9655 22.5517 94.8142 23.2792 95.2992C24.7341 96.3904 28.2503 98.0879 34.7976 98.0879C41.3448 98.0879 44.861 96.2692 46.3159 95.2992C47.0434 94.8142 47.4071 93.9655 47.2859 93.1168C46.6796 87.0545 38.9199 85.1146 38.0712 84.8721ZM45.4672 93.9655C44.376 94.693 41.2236 96.5117 34.9188 96.5117H34.7976H34.6763C28.3715 96.5117 25.2191 94.693 24.1279 93.9655C23.8854 93.8443 23.7642 93.6018 23.8854 93.3593C24.4917 88.8732 29.9477 87.0545 31.5239 86.6908L34.1913 88.7519C34.5551 88.9944 34.9188 88.9944 35.2825 88.7519L37.9499 86.6908C39.5261 87.1757 45.1034 88.8732 45.5884 93.3593C45.8309 93.6018 45.7097 93.8443 45.4672 93.9655Z" fill="#ED5C35"/>
<path d="M108.757 92.6318C107.666 88.5095 103.665 85.9633 99.4216 86.4483L96.0267 77.8398C102.331 73.7175 106.09 66.8064 106.09 59.168C106.09 46.9221 96.0267 36.8587 83.7809 36.8587C76.2636 36.8587 69.2314 40.6174 65.109 47.0434L63.8965 49.2258L53.8331 43.7697L55.0456 41.5873C56.9855 37.5862 57.9555 33.3426 57.9555 28.8565C57.9555 25.8254 57.4705 22.7942 56.5006 19.8843L55.7731 17.7019L66.079 14.9132C67.4127 20.0056 72.505 21.703 75.6574 21.218C77.9611 20.8543 79.901 19.6418 81.2347 17.8231C82.5684 16.0044 83.1746 13.7008 82.8109 11.5184C82.4472 9.21468 81.2347 7.27475 79.416 5.94104C77.5973 4.60734 75.1724 4.12236 72.99 4.4861C68.7464 5.21357 65.594 8.97219 65.8365 13.337L55.0456 16.1257C50.1958 6.30478 40.0111 0 28.9778 0C12.9733 0 0 12.9733 0 28.9778C0 44.9822 12.9733 57.9555 28.9778 57.9555L29.8265 64.9878C19.7631 67.2914 12.6096 76.3849 12.6096 86.6908C12.6096 98.9366 22.673 109 34.9188 109C47.1646 109 57.228 98.9366 57.228 86.6908C57.228 83.6596 56.6218 80.7497 55.5306 78.0823L65.9577 72.2625C70.2013 78.0823 76.8699 81.4772 84.0234 81.4772C86.9333 81.4772 89.8432 80.871 92.5106 79.7798L94.693 78.6885L97.8454 86.812C95.9054 87.4182 94.4505 88.6307 93.3593 90.2069C92.1468 92.2681 91.7831 94.9355 92.2681 97.1179C92.8743 99.3003 94.3293 101.119 96.2692 102.21C97.6029 102.938 99.0578 103.301 100.513 103.301C101.24 103.301 102.089 103.18 102.816 102.938C104.999 102.331 106.818 100.877 107.909 98.9366C109.121 97.1179 109.364 94.8142 108.757 92.6318ZM73.2325 6.18354C75.0512 5.94105 76.8699 6.30478 78.3248 7.396C79.7798 8.48721 80.7497 10.0634 80.9922 11.8821C81.2347 13.7008 80.871 15.5195 79.7798 16.9744C78.6885 18.4294 77.1123 19.3993 75.2937 19.6418C72.6263 20.0056 68.2614 18.4294 67.4127 13.822C67.0489 10.1846 69.5951 6.78977 73.2325 6.18354ZM1.69744 28.9778C1.69744 13.9433 13.9433 1.69744 28.9778 1.69744C39.5261 1.69744 49.2258 7.88098 53.7119 17.5806L54.9244 20.6118C55.7731 23.2792 56.2581 26.1891 56.2581 28.9778C56.2581 33.1001 55.2881 37.2225 53.4694 40.8598L51.8932 43.7697C47.5284 50.4383 40.6174 54.9244 32.8576 56.0156L29.584 56.2581H29.3415C29.2202 56.2581 29.099 56.2581 28.9778 56.2581C13.9433 56.3793 1.69744 44.1335 1.69744 28.9778ZM55.5306 86.812C55.5306 98.2091 46.3159 107.424 34.9188 107.424C23.5217 107.424 14.307 98.2091 14.307 86.812C14.307 76.9911 21.3393 68.5039 30.9177 66.564L34.1913 66.2002C34.4338 66.2002 34.6763 66.2002 34.9188 66.2002C41.8298 66.2002 48.1346 69.5951 52.0145 75.2937L53.5907 78.2036C54.8031 80.871 55.5306 83.7809 55.5306 86.812ZM54.6819 76.6274L53.4694 74.4449C49.347 68.2614 42.436 64.5028 34.9188 64.5028C34.6763 64.5028 34.3126 64.5028 34.0701 64.5028C34.0701 64.5028 34.0701 64.5028 33.9488 64.5028L31.4027 64.7453L30.5539 57.8343L33.1001 57.5918C41.1023 56.3793 48.2558 51.8932 52.8632 45.2247L63.0478 50.802C61.9566 53.4694 61.4716 56.2581 61.4716 59.168C61.4716 62.4416 62.1991 65.594 63.5328 68.5039L64.7453 70.6863L54.6819 76.6274ZM66.8064 70.6863L65.109 67.8977C63.8965 65.2303 63.1691 62.3204 63.1691 59.2892C63.1691 56.3793 63.7753 53.5907 64.9878 50.9232L66.564 48.0133C70.4438 42.0723 76.8699 38.5562 83.9021 38.5562C95.2992 38.5562 104.514 47.7709 104.514 59.168C104.514 66.4427 100.877 72.99 94.693 76.7486L91.7831 78.2036C89.2369 79.2948 86.6908 79.7798 83.9021 79.7798C76.9911 79.901 70.6863 76.5061 66.8064 70.6863ZM106.575 98.3304C105.726 99.9066 104.15 101.119 102.453 101.604C100.634 102.089 98.8153 101.846 97.2392 100.998C95.663 100.149 94.4505 98.5729 93.9655 96.8754C93.6018 95.5417 93.6018 93.238 94.8142 91.2981C95.7842 89.7219 97.2392 88.7519 99.1791 88.3882C102.695 87.6607 106.211 89.7219 107.181 93.238C107.666 94.9355 107.424 96.7542 106.575 98.3304Z" fill="#ED5C35"/>
</svg>
