<svg width="133" height="117" viewBox="0 0 133 117" fill="none" xmlns="http://www.w3.org/2000/svg">
<circle cx="9" cy="83" r="9" fill="#5E239D" fill-opacity="0.4"/>
<circle cx="101" cy="26" r="9" fill="#5E239D" fill-opacity="0.4"/>
<path d="M105 26L99 29.4641L99 22.5359L105 26Z" fill="white"/>
<circle cx="9" cy="34" r="9" fill="#5E239D" fill-opacity="0.4"/>
<rect x="90" y="40" width="43" height="29" rx="5" fill="#5E239D" fill-opacity="0.4"/>
<rect x="82" y="72" width="23" height="20" rx="3" fill="#5E239D" fill-opacity="0.4"/>
<path d="M38.2978 39.78C38.7992 39.78 39.1335 39.4457 39.1335 38.9443V9.52714C39.1335 5.34857 42.6435 1.83857 46.8221 1.83857H89.6107C93.7892 1.83857 97.2992 5.34857 97.2992 9.52714V13.0371C97.2992 13.5386 97.6335 13.8729 98.135 13.8729C98.6364 13.8729 98.9707 13.5386 98.9707 13.0371V9.52714C98.9707 4.34572 94.6249 0 89.4435 0H46.9892C41.8078 0 37.4621 4.34572 37.4621 9.52714V38.7771C37.4621 39.2786 37.7964 39.78 38.2978 39.78Z" fill="#F05A2B"/>
<path d="M37.4621 46.6331V67.0245C37.4621 67.5259 37.7964 67.8602 38.2978 67.8602C38.7992 67.8602 39.1335 67.5259 39.1335 67.0245V46.6331C39.1335 46.1316 38.7992 45.7974 38.2978 45.7974C37.7964 45.7974 37.4621 46.1316 37.4621 46.6331Z" fill="#F05A2B"/>
<path d="M98.3021 92.0957C97.8006 92.0957 97.4663 92.43 97.4663 92.9315V107.473C97.4663 111.651 93.9563 115.161 89.7778 115.161H46.9892C42.8106 115.161 39.3006 111.651 39.3006 107.473V75.5486C39.3006 75.0472 38.9664 74.7129 38.4649 74.7129C37.9635 74.7129 37.6292 75.0472 37.6292 75.5486V107.473C37.6292 112.654 41.9749 117 47.1564 117H89.9449C95.1263 117 99.4721 112.654 99.4721 107.473V92.9315C99.3049 92.43 98.8035 92.0957 98.3021 92.0957Z" fill="#F05A2B"/>
<path d="M94.9592 96.6083V92.9311C94.9592 92.4297 94.6249 92.0954 94.1235 92.0954C93.6221 92.0954 93.2878 92.4297 93.2878 92.9311V95.6054H43.6463V74.5454C43.6463 74.044 43.3121 73.7097 42.8106 73.7097C42.3092 73.7097 41.9749 74.044 41.9749 74.5454V96.4411C41.9749 96.9426 42.3092 97.2769 42.8106 97.2769H94.1235C94.4578 97.444 94.9592 97.1097 94.9592 96.6083Z" fill="#F05A2B"/>
<path d="M41.8077 65.6871C41.8077 66.1886 42.142 66.5228 42.6435 66.5228C43.1449 66.5228 43.4792 66.1886 43.4792 65.6871V47.97C43.4792 47.4686 43.1449 47.1343 42.6435 47.1343C42.142 47.1343 41.8077 47.4686 41.8077 47.97V65.6871Z" fill="#F05A2B"/>
<path d="M41.8077 17.2157V40.4485C41.8077 40.95 42.142 41.2842 42.6435 41.2842C43.1449 41.2842 43.4792 40.95 43.4792 40.4485V18.0514H73.2306C73.732 18.0514 74.0663 17.7171 74.0663 17.2157C74.0663 16.7142 73.732 16.38 73.2306 16.38H42.6435C42.142 16.2128 41.8077 16.7142 41.8077 17.2157Z" fill="#F05A2B"/>
<path d="M80.9192 17.2156C80.9192 16.7142 80.5849 16.3799 80.0835 16.3799H76.9078C76.4064 16.3799 76.0721 16.7142 76.0721 17.2156C76.0721 17.717 76.4064 18.0513 76.9078 18.0513H80.0835C80.4178 18.0513 80.9192 17.717 80.9192 17.2156Z" fill="#F05A2B"/>
<path d="M90.6135 17.2156C90.6135 16.7142 90.2792 16.3799 89.7778 16.3799H83.4264C82.9249 16.3799 82.5906 16.7142 82.5906 17.2156C82.5906 17.717 82.9249 18.0513 83.4264 18.0513H89.7778C90.2792 18.0513 90.6135 17.717 90.6135 17.2156Z" fill="#F05A2B"/>
<path d="M78.5792 10.0284C79.0806 10.0284 79.4149 9.69408 79.4149 9.19265C79.4149 8.69122 79.0806 8.35693 78.5792 8.35693H62.3664C61.8649 8.35693 61.5306 8.69122 61.5306 9.19265C61.5306 9.69408 61.8649 10.0284 62.3664 10.0284H78.5792Z" fill="#F05A2B"/>
<path d="M58.6892 9.86129C58.8563 9.69415 59.0235 9.52701 59.0235 9.19272C59.0235 9.02558 58.8563 8.69129 58.6892 8.52415C58.3549 8.18987 57.6863 8.18987 57.352 8.52415C57.1849 8.69129 57.0178 8.85844 57.0178 9.19272C57.0178 9.35987 57.1849 9.69415 57.352 9.86129C57.5192 10.0284 57.6863 10.1956 58.0206 10.1956C58.1878 10.0284 58.522 10.0284 58.6892 9.86129Z" fill="#F05A2B"/>
<path d="M62.7006 106.136C62.7006 109.311 65.2078 111.819 68.3835 111.819C71.5592 111.819 74.0663 109.311 74.0663 106.136C74.0663 102.96 71.5592 100.453 68.3835 100.453C65.2078 100.453 62.7006 102.96 62.7006 106.136ZM72.2278 106.136C72.2278 108.309 70.5563 109.98 68.3835 109.98C66.2106 109.98 64.5392 108.309 64.5392 106.136C64.5392 103.963 66.2106 102.291 68.3835 102.291C70.3892 102.291 72.2278 103.963 72.2278 106.136Z" fill="#F05A2B"/>
<path d="M99.3049 69.197H82.0892C80.4178 69.197 79.2478 70.5342 79.2478 72.0384V87.5827C79.2478 89.2542 80.5849 90.4242 82.0892 90.4242H99.3049C101.311 90.4242 102.815 88.7527 102.815 86.9142V72.707C102.815 70.7013 101.311 69.197 99.3049 69.197ZM100.976 86.9142C100.976 87.917 100.141 88.7527 99.1378 88.7527H82.0892C81.4207 88.7527 80.9192 88.2513 80.9192 87.5827V72.0384C80.9192 71.3699 81.4207 70.8684 82.0892 70.8684H99.3049C100.308 70.8684 101.144 71.7042 101.144 72.707V86.9142H100.976Z" fill="#F05A2B"/>
<path d="M95.4606 79.5601C95.1263 79.0587 94.4578 79.0587 94.1235 79.393L93.1206 80.2287C92.6192 80.563 92.1178 80.563 91.7835 80.0616L88.2735 75.2144C87.7721 74.5459 86.9363 74.713 86.6021 75.3816C85.4321 77.8887 84.2621 80.3959 83.0921 82.7359C82.7578 83.4044 83.2592 84.073 83.9278 84.073H96.9649C97.8006 84.073 98.3021 83.0701 97.8006 82.5687C97.1321 81.733 96.2963 80.563 95.4606 79.5601Z" fill="#F05A2B"/>
<path d="M96.4634 74.2114C95.962 74.3786 95.6277 74.7128 95.4606 75.2143C94.9592 76.3843 96.1292 77.5543 97.2992 77.3871C97.9677 77.22 98.4691 76.7186 98.6363 76.05C98.8034 74.88 97.6334 73.8771 96.4634 74.2114Z" fill="#F05A2B"/>
<path d="M89.6106 24.5701C89.6106 29.9187 93.9563 34.0973 99.1377 34.0973C104.486 34.0973 108.665 29.7515 108.665 24.5701C108.665 19.2215 104.319 15.043 99.1377 15.043C93.9563 15.043 89.6106 19.3887 89.6106 24.5701ZM99.3049 16.8815C103.651 16.8815 107.161 20.3915 107.161 24.7373C107.161 29.083 103.651 32.593 99.3049 32.593C94.9592 32.593 91.4492 29.083 91.4492 24.7373C91.4492 20.3915 94.9592 16.8815 99.3049 16.8815Z" fill="#F05A2B"/>
<path d="M96.9649 27.913C97.2992 28.0802 97.4663 28.0802 97.8006 28.0802C98.1349 28.0802 98.302 28.0802 98.6363 27.913L102.481 25.9073C102.982 25.573 103.316 25.0716 103.316 24.403C103.316 23.7345 102.982 23.233 102.481 22.8988L98.6363 21.0602C98.1349 20.7259 97.4663 20.893 96.9649 21.0602C96.4634 21.3945 96.1292 21.8959 96.1292 22.3973V26.2416C96.1292 27.0773 96.4634 27.5788 96.9649 27.913ZM97.6334 22.7316C97.6334 22.5645 97.6334 22.5645 97.8006 22.5645C97.8006 22.5645 97.8006 22.5645 97.9677 22.5645C97.9677 22.5645 97.9677 22.5645 98.1349 22.5645L101.979 24.403C102.146 24.403 102.146 24.5702 102.146 24.5702C102.146 24.5702 102.146 24.7373 101.979 24.7373L97.9677 26.743C97.8006 26.743 97.8006 26.743 97.8006 26.743L97.6334 26.5759V22.7316Z" fill="#F05A2B"/>
<path d="M66.8792 44.2927C60.0264 44.2927 54.3435 49.9756 54.3435 56.8284C54.3435 63.6813 60.0264 69.3642 66.8792 69.3642C73.7321 69.3642 79.4149 63.6813 79.4149 56.8284C79.4149 49.9756 73.7321 44.2927 66.8792 44.2927ZM66.8792 67.5256C61.0292 67.5256 56.1821 62.6784 56.1821 56.8284C56.1821 50.9784 61.0292 46.1313 66.8792 46.1313C72.7292 46.1313 77.5764 50.9784 77.5764 56.8284C77.5764 62.6784 72.7292 67.5256 66.8792 67.5256Z" fill="#F05A2B"/>
<path d="M71.8934 55.3243H69.5534C68.8848 55.3243 68.3834 54.8229 68.3834 54.1543V51.8143C68.3834 51.1457 67.882 50.6443 67.2134 50.6443H66.3777C65.7091 50.6443 65.2077 51.1457 65.2077 51.8143V54.1543C65.2077 54.8229 64.7063 55.3243 64.0377 55.3243H61.6977C61.0291 55.3243 60.5277 55.8257 60.5277 56.4943V57.4971C60.5277 58.1657 61.0291 58.6671 61.6977 58.6671H64.0377C64.7063 58.6671 65.2077 59.1686 65.2077 59.8371V61.8429C65.2077 62.5114 65.7091 63.0129 66.3777 63.0129H67.2134C67.882 63.0129 68.3834 62.5114 68.3834 61.8429V59.5029C68.3834 58.8343 68.8848 58.3329 69.5534 58.3329H71.8934C72.562 58.3329 73.0634 57.8314 73.0634 57.1629V56.16C72.8963 55.8257 72.3949 55.3243 71.8934 55.3243Z" fill="#F05A2B"/>
<path d="M52.6721 64.6841L49.8306 65.687C49.3292 65.8541 49.1621 66.3555 49.3292 66.857C49.4964 67.1912 49.8306 67.5255 50.1649 67.5255C50.3321 67.5255 50.3321 67.5255 50.4992 67.5255L53.3406 66.5227C53.8421 66.3555 54.0092 65.8541 53.8421 65.3527C53.6749 64.8512 53.1735 64.517 52.6721 64.6841Z" fill="#F05A2B"/>
<path d="M46.3206 67.0244L43.4792 68.0273C42.9778 68.1944 42.8106 68.6958 42.9778 69.1973C43.1449 69.5315 43.4792 69.8658 43.8135 69.8658C43.9806 69.8658 43.9806 69.8658 44.1478 69.8658L46.9892 68.863C47.4906 68.6958 47.6578 68.1944 47.4906 67.693C47.3235 67.0244 46.8221 66.8573 46.3206 67.0244Z" fill="#F05A2B"/>
<path d="M33.7849 71.7044L30.9435 72.7072C30.4421 72.8744 30.2749 73.3758 30.4421 73.8772C30.6092 74.2115 30.9435 74.5458 31.2778 74.5458C31.4449 74.5458 31.4449 74.5458 31.6121 74.5458L34.4535 73.543C34.9549 73.3758 35.1221 72.8744 34.9549 72.373C34.7878 71.7044 34.2864 71.3701 33.7849 71.7044Z" fill="#F05A2B"/>
<path d="M21.2492 76.2171L18.9092 77.0529C18.5749 76.3843 18.2406 75.8829 17.7392 75.3814C16.0678 73.3757 13.7278 72.2057 11.2206 72.0386C8.71348 71.8714 6.20633 72.54 4.36776 74.2114C2.36205 75.8829 1.19205 78.2229 1.02491 80.73C0.857764 83.2371 1.52634 85.7443 3.19776 87.5829C4.86919 89.5886 7.20919 90.7586 9.71633 90.9257C10.0506 90.9257 10.2178 90.9257 10.552 90.9257C12.7249 90.9257 14.8978 90.09 16.7363 88.7529C18.742 87.0814 19.912 84.7414 20.0792 82.2343C20.2463 81.0643 20.0792 79.8943 19.7449 78.7243L21.9178 77.8886C22.4192 77.7214 22.5863 77.22 22.4192 76.7186C22.252 76.2172 21.7506 76.05 21.2492 76.2171ZM9.88348 89.0872C5.70491 88.7529 2.52919 85.0757 2.86348 80.73C3.19776 76.7186 6.54062 73.71 10.552 73.71C10.7192 73.71 11.0535 73.71 11.2206 73.71C15.3992 74.0443 18.5749 77.7214 18.2406 82.0671C17.9063 86.4129 14.2292 89.4214 9.88348 89.0872Z" fill="#F05A2B"/>
<path d="M37.9635 72.0387L40.8049 71.0359C41.3064 70.8687 41.4735 70.3673 41.3064 69.8659C41.1392 69.3644 40.6378 69.1973 40.1364 69.3644L37.2949 70.3673C36.7935 70.5344 36.6264 71.0359 36.7935 71.5373C36.9607 71.8716 37.2949 72.2059 37.6292 72.2059C37.6292 72.2059 37.7964 72.0387 37.9635 72.0387Z" fill="#F05A2B"/>
<path d="M27.6006 73.8772L24.7592 74.8801C24.2577 75.0472 24.0906 75.5486 24.2577 76.0501C24.4249 76.3844 24.7592 76.7186 25.0935 76.7186C25.2606 76.7186 25.2606 76.7186 25.4277 76.7186L28.2692 75.7158C28.7706 75.5486 28.9377 75.0472 28.7706 74.5458C28.6035 74.0444 28.102 73.7101 27.6006 73.8772Z" fill="#F05A2B"/>
<path d="M10.5521 41.7856C10.8863 41.7856 11.0535 41.7856 11.3878 41.7856C14.7306 41.4513 17.5721 39.4456 19.0763 36.7713L21.4163 37.607C21.5835 37.607 21.5835 37.607 21.7506 37.607C22.0849 37.607 22.4192 37.4399 22.5863 36.9385C22.7535 36.437 22.5863 35.9356 22.0849 35.7685L19.9121 34.9328C20.2463 33.7628 20.4135 32.5928 20.2463 31.4228C20.0792 28.9156 18.9092 26.5756 16.9035 24.9042C14.8978 23.2328 12.5578 22.397 10.0506 22.7313C7.54348 22.8985 5.20348 24.0685 3.53206 26.0742C1.86063 28.0799 1.02491 30.4199 1.3592 32.927C1.52634 35.4342 2.69634 37.7742 4.70206 39.4456C6.20634 40.9499 8.3792 41.7856 10.5521 41.7856ZM9.88348 24.5699C10.0506 24.5699 10.3849 24.5699 10.5521 24.5699C12.3906 24.5699 14.0621 25.2385 15.5663 26.4085C17.0706 27.7456 18.0735 29.5842 18.2406 31.5899C18.5749 35.7685 15.3992 39.6128 11.2206 39.947C9.21491 40.1142 7.2092 39.4456 5.53777 38.1085C4.03348 36.7713 3.03063 34.9328 2.86348 32.927C2.5292 28.7485 5.70491 24.9042 9.88348 24.5699Z" fill="#F05A2B"/>
<path d="M53.3406 47.3016L50.4992 46.2988C49.9978 46.1316 49.4964 46.2988 49.3292 46.8002C49.1621 47.3016 49.3292 47.803 49.8306 47.9702L52.6721 48.973C52.8392 48.973 52.8392 48.973 53.0064 48.973C53.3406 48.973 53.6749 48.8059 53.8421 48.3045C54.0092 47.9702 53.8421 47.4688 53.3406 47.3016Z" fill="#F05A2B"/>
<path d="M28.2692 38.1087L25.4277 37.1059C24.9263 36.9387 24.4249 37.1059 24.2577 37.6073C24.0906 38.1087 24.2577 38.6102 24.7592 38.7773L27.6006 39.7802C27.7677 39.7802 27.7677 39.7802 27.9349 39.7802C28.2692 39.7802 28.6035 39.613 28.7706 39.1116C28.9377 38.7773 28.6035 38.2759 28.2692 38.1087Z" fill="#F05A2B"/>
<path d="M46.9892 44.9615L44.1478 43.9587C43.6463 43.7915 43.1449 43.9587 42.9778 44.4601C42.8106 44.9615 42.9778 45.463 43.4792 45.6301L46.3206 46.633C46.4878 46.633 46.4878 46.633 46.6549 46.633C46.9892 46.633 47.3235 46.4658 47.4906 45.9644C47.6578 45.6301 47.4906 45.1287 46.9892 44.9615Z" fill="#F05A2B"/>
<path d="M30.9435 41.1171L33.7849 42.1199C33.952 42.1199 33.952 42.1199 34.1192 42.1199C34.4535 42.1199 34.7878 41.9528 34.9549 41.4514C35.122 40.9499 34.9549 40.4485 34.4535 40.2814L31.612 39.2785C31.1106 39.1114 30.6092 39.2785 30.442 39.7799C30.2749 40.2814 30.6092 40.9499 30.9435 41.1171Z" fill="#F05A2B"/>
<path d="M37.2949 43.2902L40.1364 44.293C40.3035 44.293 40.3035 44.293 40.4707 44.293C40.8049 44.293 41.1392 44.1259 41.3064 43.6245C41.4735 43.123 41.3064 42.6216 40.8049 42.4545L37.9635 41.4516C37.4621 41.2845 36.9607 41.4516 36.7935 41.953C36.6264 42.6216 36.7935 43.123 37.2949 43.2902Z" fill="#F05A2B"/>
<path d="M126.048 35.9355H90.7806C88.4406 35.9355 86.4349 37.9413 86.4349 40.2813V62.5113C86.4349 64.8513 88.4406 66.857 90.7806 66.857H126.048C128.388 66.857 130.393 64.8513 130.393 62.5113V40.2813C130.393 37.9413 128.388 35.9355 126.048 35.9355ZM128.555 40.2813V41.6184H102.815L103.483 37.7741H125.881C127.385 37.7741 128.555 38.9441 128.555 40.2813ZM90.7806 37.7741H101.645L100.976 41.6184H88.2735V40.2813C88.2735 38.9441 89.4435 37.7741 90.7806 37.7741ZM126.048 65.1855H90.7806C89.4435 65.1855 88.2735 64.0155 88.2735 62.6784V43.457H128.555V62.6784C128.555 64.0155 127.385 65.1855 126.048 65.1855Z" fill="#F05A2B"/>
<path d="M91.7835 41.1171C92.4297 41.1171 92.9535 40.5933 92.9535 39.9471C92.9535 39.3009 92.4297 38.7771 91.7835 38.7771C91.1373 38.7771 90.6135 39.3009 90.6135 39.9471C90.6135 40.5933 91.1373 41.1171 91.7835 41.1171Z" fill="#F05A2B"/>
<path d="M94.9592 41.1171C95.6054 41.1171 96.1292 40.5933 96.1292 39.9471C96.1292 39.3009 95.6054 38.7771 94.9592 38.7771C94.313 38.7771 93.7892 39.3009 93.7892 39.9471C93.7892 40.5933 94.313 41.1171 94.9592 41.1171Z" fill="#F05A2B"/>
<path d="M98.1349 41.1171C98.7811 41.1171 99.3049 40.5933 99.3049 39.9471C99.3049 39.3009 98.7811 38.7771 98.1349 38.7771C97.4887 38.7771 96.9649 39.3009 96.9649 39.9471C96.9649 40.5933 97.4887 41.1171 98.1349 41.1171Z" fill="#F05A2B"/>
<path d="M100.809 55.3245H91.2821C90.7806 55.3245 90.4464 55.6587 90.4464 56.1602C90.4464 56.6616 90.7806 56.9959 91.2821 56.9959H100.809C101.311 56.9959 101.645 56.6616 101.645 56.1602C101.645 55.6587 101.311 55.3245 100.809 55.3245Z" fill="#F05A2B"/>
<path d="M100.809 57.8315H91.2821C90.7806 57.8315 90.4464 58.1658 90.4464 58.6673C90.4464 59.1687 90.7806 59.503 91.2821 59.503H100.809C101.311 59.503 101.645 59.1687 101.645 58.6673C101.645 58.1658 101.311 57.8315 100.809 57.8315Z" fill="#F05A2B"/>
<path d="M98.1349 60.5056H91.1149C90.6135 60.5056 90.2792 60.8399 90.2792 61.3413C90.2792 61.8428 90.6135 62.177 91.1149 62.177H98.1349C98.6363 62.177 98.9706 61.8428 98.9706 61.3413C98.9706 60.8399 98.6363 60.5056 98.1349 60.5056Z" fill="#F05A2B"/>
<path d="M91.6164 53.4858H99.9735C100.809 53.4858 101.478 52.8172 101.478 51.9815V47.4686C101.478 46.6329 100.809 45.9644 99.9735 45.9644H91.6164C90.7807 45.9644 90.1121 46.6329 90.1121 47.4686V51.8144C89.9449 52.8172 90.7807 53.4858 91.6164 53.4858ZM91.7835 47.6358H99.4721V51.6472H91.7835V47.6358Z" fill="#F05A2B"/>
<path d="M112.676 45.7974H104.319C103.483 45.7974 102.815 46.4659 102.815 47.3016V51.8145C102.815 52.6502 103.483 53.3188 104.319 53.3188H112.676C113.512 53.3188 114.181 52.6502 114.181 51.8145V47.3016C114.181 46.4659 113.512 45.7974 112.676 45.7974ZM112.342 51.6474H104.653V47.6359H112.342V51.6474Z" fill="#F05A2B"/>
<path d="M113.345 55.3245H103.818C103.316 55.3245 102.982 55.6587 102.982 56.1602C102.982 56.6616 103.316 56.9959 103.818 56.9959H113.345C113.846 56.9959 114.181 56.6616 114.181 56.1602C114.181 55.6587 113.846 55.3245 113.345 55.3245Z" fill="#F05A2B"/>
<path d="M113.345 57.8315H103.818C103.316 57.8315 102.982 58.1658 102.982 58.6673C102.982 59.1687 103.316 59.503 103.818 59.503H113.345C113.846 59.503 114.181 59.1687 114.181 58.6673C114.181 58.1658 113.846 57.8315 113.345 57.8315Z" fill="#F05A2B"/>
<path d="M110.671 60.5056H103.651C103.149 60.5056 102.815 60.8399 102.815 61.3413C102.815 61.8428 103.149 62.177 103.651 62.177H110.671C111.172 62.177 111.506 61.8428 111.506 61.3413C111.506 60.8399 111.172 60.5056 110.671 60.5056Z" fill="#F05A2B"/>
<path d="M125.546 45.7974H117.189C116.354 45.7974 115.685 46.4659 115.685 47.3016V51.8145C115.685 52.6502 116.354 53.3188 117.189 53.3188H125.546C126.382 53.3188 127.051 52.6502 127.051 51.8145V47.3016C127.051 46.4659 126.382 45.7974 125.546 45.7974ZM125.212 51.6474H117.524V47.6359H125.212V51.6474Z" fill="#F05A2B"/>
<path d="M126.048 55.3245H116.521C116.019 55.3245 115.685 55.6587 115.685 56.1602C115.685 56.6616 116.019 56.9959 116.521 56.9959H126.048C126.549 56.9959 126.884 56.6616 126.884 56.1602C126.884 55.6587 126.549 55.3245 126.048 55.3245Z" fill="#F05A2B"/>
<path d="M126.048 57.8315H116.521C116.019 57.8315 115.685 58.1658 115.685 58.6673C115.685 59.1687 116.019 59.503 116.521 59.503H126.048C126.549 59.503 126.884 59.1687 126.884 58.6673C126.884 58.1658 126.549 57.8315 126.048 57.8315Z" fill="#F05A2B"/>
<path d="M123.541 60.5056H116.521C116.019 60.5056 115.685 60.8399 115.685 61.3413C115.685 61.8428 116.019 62.177 116.521 62.177H123.541C124.042 62.177 124.376 61.8428 124.376 61.3413C124.376 60.8399 124.042 60.5056 123.541 60.5056Z" fill="#F05A2B"/>
</svg>
