<svg width="23" height="33" viewBox="0 0 23 33" fill="none" xmlns="http://www.w3.org/2000/svg">
<path d="M0 22.8166C0 24.7421 0.57098 26.6244 1.64074 28.2254C2.71049 29.8264 4.23096 31.0742 6.0099 31.8111C7.78884 32.5479 9.74635 32.7407 11.6349 32.3651C13.5234 31.9894 15.2581 31.0622 16.6196 29.7007C17.9812 28.3391 18.9084 26.6044 19.284 24.7159C19.6597 22.8274 19.4669 20.8699 18.73 19.091C17.9932 17.312 16.7453 15.7915 15.1443 14.7218C13.5433 13.652 11.6611 13.0811 9.73555 13.0811C7.15448 13.0842 4.68001 14.1109 2.85492 15.936C1.02983 17.7611 0.00312857 20.2355 0 22.8166ZM13.0044 22.8166C13.0044 23.4584 12.814 24.0859 12.4575 24.6195C12.1009 25.1532 11.5941 25.5691 11.0011 25.8148C10.4081 26.0604 9.75558 26.1246 9.12608 25.9994C8.49657 25.8742 7.91834 25.5651 7.46449 25.1113C7.01064 24.6574 6.70158 24.0792 6.57637 23.4497C6.45115 22.8202 6.51541 22.1677 6.76103 21.5747C7.00665 20.9817 7.42259 20.4749 7.95625 20.1183C8.48992 19.7617 9.11734 19.5714 9.75918 19.5714C10.6158 19.5777 11.4351 19.9223 12.0386 20.5302C12.6421 21.1381 12.9808 21.96 12.9807 22.8166H13.0044Z" fill="url(#paint0_linear)"/>
<path d="M0 9.83565C0 11.7612 0.57098 13.6434 1.64074 15.2444C2.71049 16.8454 4.23096 18.0933 6.0099 18.8301C7.78884 19.567 9.74635 19.7598 11.6349 19.3841C13.5234 19.0085 15.2581 18.0813 16.6196 16.7197C17.9812 15.3582 18.9084 13.6235 19.284 11.735C19.6597 9.84645 19.4669 7.88895 18.73 6.11001C17.9932 4.33107 16.7453 2.81059 15.1443 1.74083C13.5433 0.671078 11.6611 0.100098 9.73555 0.100098C7.15448 0.103226 4.68001 1.12994 2.85492 2.95503C1.02983 4.78012 0.00312857 7.25458 0 9.83565ZM13.0044 9.83565C13.0044 10.4775 12.814 11.1049 12.4575 11.6386C12.1009 12.1722 11.5941 12.5882 11.0011 12.8338C10.4081 13.0794 9.75558 13.1437 9.12608 13.0185C8.49657 12.8933 7.91834 12.5842 7.46449 12.1303C7.01064 11.6765 6.70158 11.0983 6.57637 10.4688C6.45115 9.83925 6.51541 9.18675 6.76103 8.59377C7.00665 8.00079 7.42259 7.49396 7.95625 7.13738C8.48992 6.78079 9.11734 6.59046 9.75918 6.59046C10.6158 6.5967 11.4351 6.94136 12.0386 7.54927C12.6421 8.15719 12.9808 8.97905 12.9807 9.83565H13.0044Z" fill="url(#paint1_linear)"/>
<path d="M9.73555 6.59106C10.5978 6.59106 11.4247 6.93358 12.0344 7.54328C12.6441 8.15298 12.9866 8.97991 12.9866 9.84215C12.9866 10.7044 12.6441 11.5313 12.0344 12.141C11.4247 12.7507 10.5978 13.0932 9.73555 13.0932C7.15352 13.0932 4.67724 14.119 2.85147 15.9447C1.0257 17.7705 0 20.2468 0 22.8288C0 25.4108 1.0257 27.8871 2.85147 29.7129C4.67724 31.5386 7.15352 32.5643 9.73555 32.5643V26.0622C8.87331 26.0622 8.04637 25.7196 7.43667 25.1099C6.82697 24.5002 6.48446 23.6733 6.48446 22.8111C6.48446 21.9488 6.82697 21.1219 7.43667 20.5122C8.04637 19.9025 8.87331 19.56 9.73555 19.56C12.3176 19.56 14.7938 18.5343 16.6196 16.7085C18.4454 14.8827 19.4711 12.4064 19.4711 9.82442C19.4711 7.24239 18.4454 4.76611 16.6196 2.94034C14.7938 1.11457 12.3176 0.0888672 9.73555 0.0888672V6.59106Z" fill="url(#paint2_linear)"/>
<path d="M20.4997 5.00077C21.8806 5.00077 23 3.88131 23 2.50039C23 1.11946 21.8806 0 20.4997 0C19.1187 0 17.9993 1.11946 17.9993 2.50039C17.9993 3.88131 19.1187 5.00077 20.4997 5.00077Z" fill="url(#paint3_linear)"/>
<defs>
<linearGradient id="paint0_linear" x1="9.73555" y1="31.9788" x2="9.73555" y2="12.5077" gradientUnits="userSpaceOnUse">
<stop offset="0.32" stop-color="#F05A2B"/>
<stop offset="0.39" stop-color="#E3542A"/>
<stop offset="0.5" stop-color="#D74F28"/>
<stop offset="0.64" stop-color="#D04C27"/>
<stop offset="1" stop-color="#CE4B27"/>
</linearGradient>
<linearGradient id="paint1_linear" x1="12.2537" y1="19.2402" x2="7.21743" y2="0.431119" gradientUnits="userSpaceOnUse">
<stop stop-color="#B74025"/>
<stop offset="0.4" stop-color="#D74F28"/>
<stop offset="0.77" stop-color="#F05A2B"/>
</linearGradient>
<linearGradient id="paint2_linear" x1="19.4711" y1="16.3266" x2="0" y2="16.3266" gradientUnits="userSpaceOnUse">
<stop stop-color="#B74025"/>
<stop offset="0.06" stop-color="#C44626"/>
<stop offset="0.18" stop-color="#D84F28"/>
<stop offset="0.31" stop-color="#E6552A"/>
<stop offset="0.48" stop-color="#EE592B"/>
<stop offset="0.77" stop-color="#F05A2B"/>
</linearGradient>
<linearGradient id="paint3_linear" x1="20.4997" y1="5.00077" x2="20.4997" y2="0" gradientUnits="userSpaceOnUse">
<stop stop-color="#CF4B27"/>
<stop offset="0.35" stop-color="#D95028"/>
<stop offset="0.84" stop-color="#EF5A2B"/>
</linearGradient>
</defs>
</svg>
