<?xml version="1.0" standalone="no"?>
<!DOCTYPE svg PUBLIC "-//W3C//DTD SVG 20010904//EN"
 "http://www.w3.org/TR/2001/REC-SVG-20010904/DTD/svg10.dtd">
<svg version="1.0" xmlns="http://www.w3.org/2000/svg"
 width="410.000000pt" height="647.000000pt" viewBox="0 0 410.000000 647.000000"
 preserveAspectRatio="xMidYMid meet">
<metadata>
Created by potrace 1.16, written by Peter Selinger 2001-2019
</metadata>
<g transform="translate(0.000000,647.000000) scale(0.100000,-0.100000)"
fill="#000000" stroke="none">
<path d="M2457 5264 c-8 -8 -71 -17 -119 -17 -21 0 -38 -4 -38 -8 0 -4 -8 -6
-17 -5 -23 4 -78 -19 -78 -32 0 -6 -3 -14 -7 -18 -5 -4 -8 -2 -8 5 0 7 -5 9
-11 6 -6 -5 -4 -11 7 -19 12 -9 14 -15 5 -20 -6 -4 -8 -12 -5 -18 4 -7 2 -8
-5 -4 -7 5 -17 -5 -25 -26 -8 -18 -13 -34 -12 -36 2 -1 15 4 29 11 15 8 24 17
20 20 -3 4 -2 7 3 8 5 0 17 2 27 4 9 2 17 -1 17 -6 0 -5 -7 -9 -15 -9 -8 0
-15 -9 -15 -20 0 -12 -12 -32 -26 -45 -36 -33 -55 -70 -42 -83 7 -7 -3 -27
-28 -61 -21 -27 -39 -57 -40 -66 -3 -23 21 -18 40 8 l17 22 -6 -27 c-5 -27 8
-39 18 -18 3 6 4 5 3 -2 -2 -7 -13 -12 -25 -10 -18 2 -21 -2 -16 -18 5 -14 3
-18 -8 -15 -7 3 -14 0 -14 -7 -1 -7 -3 -30 -6 -51 -5 -31 -3 -36 8 -27 11 9
12 4 5 -26 -5 -20 -5 -33 0 -28 15 16 20 68 7 76 -8 5 -3 8 12 8 19 0 21 3 12
14 -10 12 -8 13 8 9 12 -3 21 -14 21 -24 0 -11 7 -19 16 -19 11 0 13 -6 9 -19
-3 -11 0 -23 6 -27 7 -4 9 -3 6 3 -9 14 16 24 33 13 7 -5 9 -13 4 -21 -4 -7
-9 -23 -10 -36 -2 -19 2 -23 26 -23 16 0 41 5 57 11 15 6 45 11 65 10 21 0 68
6 105 14 60 12 69 12 79 -1 10 -12 3 -24 -35 -62 -58 -60 -110 -85 -159 -78
-74 10 -102 19 -102 30 0 6 -5 3 -11 -7 -13 -21 -30 -13 -22 11 3 9 3 14 -1
10 -4 -3 -9 -14 -10 -25 -2 -11 -13 -19 -29 -21 -21 -3 -27 -11 -38 -51 l-12
-49 -24 26 c-12 14 -23 29 -23 33 0 5 -4 9 -10 9 -22 0 -9 -87 24 -160 28 -62
31 -76 19 -83 -9 -6 -26 1 -50 20 -19 15 -43 34 -53 41 -27 20 -133 36 -235
36 -124 0 -335 -18 -343 -30 -4 -5 -32 -10 -62 -11 -63 -3 -158 -32 -107 -33
18 0 27 -5 24 -12 -3 -11 -25 -14 -60 -9 -5 0 -5 6 -2 11 3 6 3 10 -1 10 -6 0
-115 -34 -154 -48 -8 -3 -24 -7 -35 -9 -11 -1 -42 -7 -70 -12 l-50 -10 63 3
64 2 -36 -18 c-41 -21 -39 -18 -25 -55 8 -21 12 -24 19 -13 8 12 10 12 15 -3
6 -15 8 -15 23 0 34 33 23 48 -33 44 -20 -2 -20 -1 -1 14 13 10 23 12 30 5 5
-5 16 -10 24 -10 12 0 12 3 1 18 -7 9 12 -9 42 -40 31 -32 68 -81 83 -109 24
-43 28 -59 24 -110 -2 -33 -9 -64 -15 -70 -7 -7 -10 -3 -8 16 3 19 -2 28 -18
35 -27 10 -34 4 -41 -34 -3 -16 -8 -31 -12 -35 -4 -3 -4 2 -1 11 3 10 2 20 -3
23 -6 4 -10 -2 -10 -11 0 -10 -3 -14 -6 -11 -11 10 -13 105 -4 138 8 26 7 30
-6 25 -9 -3 -19 -6 -22 -6 -4 0 -1 -4 6 -9 10 -6 11 -17 5 -42 l-9 -34 -17 49
c-27 79 -65 134 -125 181 -62 49 -77 53 -37 10 14 -16 23 -31 19 -34 -3 -3
-13 3 -22 14 -24 30 -80 51 -95 36 -8 -8 -8 -11 1 -11 7 0 14 0 17 0 8 0 125
-121 125 -129 0 -4 7 -8 15 -8 8 0 12 3 10 7 -2 3 0 12 5 20 8 13 12 12 24 -5
20 -27 14 -40 -17 -38 -24 1 -25 0 -15 -22 l11 -24 19 25 c11 13 24 21 29 18
6 -3 5 -12 -3 -22 -11 -14 -10 -15 7 -9 20 7 20 7 1 -8 -19 -15 -19 -15 5 -15
19 0 21 -2 9 -10 -8 -5 -10 -10 -4 -10 14 0 24 -44 14 -60 -4 -7 -18 -10 -31
-6 -23 6 -23 6 1 -6 14 -7 27 -15 30 -18 16 -19 393 -179 568 -241 45 -16 111
-33 146 -38 51 -7 73 -17 117 -50 30 -23 77 -49 106 -58 29 -9 50 -20 47 -25
-3 -5 12 -15 33 -23 21 -9 63 -26 93 -39 76 -33 136 -50 149 -42 6 4 11 1 11
-6 0 -11 2 -10 9 0 7 11 9 11 14 -2 4 -9 16 -16 27 -16 11 0 20 -4 20 -9 0 -5
18 -11 41 -15 58 -9 110 -39 139 -81 14 -19 41 -45 60 -57 19 -12 65 -43 101
-69 l65 -48 150 24 c82 13 237 40 344 59 183 32 350 60 650 107 69 10 135 21
148 24 l23 6 -2 357 c-1 356 -1 358 -23 368 -11 5 -21 17 -21 26 0 10 -8 27
-18 38 -9 11 -17 22 -17 25 0 22 -174 165 -201 165 -8 0 -25 16 -39 36 -18 27
-25 32 -30 20 -3 -11 -9 -13 -20 -6 -22 14 -30 12 -31 -7 0 -15 -3 -14 -16 5
-17 25 -35 30 -27 7 4 -10 0 -15 -15 -15 -13 0 -19 -5 -15 -14 3 -7 -2 -16
-10 -19 -9 -4 -16 -1 -16 6 0 8 -4 6 -10 -3 -8 -12 -10 -11 -10 7 0 12 9 27
20 33 22 12 16 45 -6 36 -8 -3 -27 -1 -42 5 -45 18 -62 19 -62 3 0 -8 -10 -14
-26 -14 -22 0 -25 -2 -14 -15 11 -13 8 -15 -14 -15 -18 0 -25 -4 -20 -12 5 -8
2 -9 -9 -5 -10 4 -17 2 -17 -5 0 -6 -6 -5 -17 3 -11 10 -14 10 -9 2 5 -9 -1
-13 -20 -13 -15 0 -24 -3 -21 -7 11 -10 -14 -33 -36 -33 -20 0 -20 0 -2 14 17
12 18 16 5 32 -14 17 -14 18 3 5 19 -15 24 -2 5 17 -7 7 -9 12 -5 12 4 0 2 6
-5 14 -7 7 -19 11 -25 9 -7 -3 -13 2 -13 11 0 33 -39 14 -99 -46 -34 -33 -59
-53 -55 -42 4 10 11 24 15 30 5 6 6 14 2 17 -3 4 -1 7 6 7 7 0 10 4 7 9 -4 5
0 11 6 14 30 10 -3 16 -46 8 -54 -10 -86 -36 -102 -84 -7 -21 -27 -43 -58 -64
-46 -31 -94 -45 -81 -23 4 6 -24 9 -77 9 -93 -2 -165 14 -184 39 -8 9 -14 13
-14 7 -1 -17 -20 19 -20 38 0 13 6 16 25 13 13 -3 29 -7 35 -11 13 -8 13 8 -1
22 -8 8 -8 13 0 17 6 4 11 5 11 1 0 -3 13 1 30 10 16 8 41 15 57 15 20 0 24 3
16 11 -6 6 -29 10 -51 7 -22 -2 -38 0 -36 4 3 5 14 8 25 8 23 0 25 16 4 36 -8
9 -15 13 -15 9 0 -3 -9 -1 -20 5 -36 19 -21 26 58 25 60 0 84 4 107 19 35 23
23 30 -31 19 -21 -5 -52 -7 -68 -5 l-29 4 24 13 c13 7 39 21 57 30 44 24 48
33 15 40 -46 10 -75 24 -69 34 4 5 1 11 -5 13 -16 5 -22 63 -17 163 0 11 -1
43 -2 72 -3 44 -7 53 -29 65 -14 7 -28 16 -31 20 -3 4 -21 10 -40 13 -57 9
-101 26 -95 36 4 5 -3 9 -13 9 -11 0 -22 9 -25 21 -4 15 -1 19 11 16 9 -2 16
-9 14 -16 -2 -9 3 -9 19 -1 13 8 19 18 16 30 -5 20 17 35 36 23 7 -4 8 0 3 13
-5 10 -11 27 -13 36 -3 10 -9 15 -14 12 -5 -3 -6 1 -3 9 3 8 1 18 -5 22 -6 3
-11 19 -11 36 0 26 3 29 34 29 19 0 38 5 41 10 3 6 1 10 -6 10 -6 0 -9 8 -6
20 4 16 -1 21 -28 26 -19 3 -38 3 -44 -1 -6 -3 -11 -1 -11 5 0 6 -4 9 -9 5
-10 -6 -8 17 4 48 7 17 4 22 -8 11z m773 -1024 c-11 -7 -6 -10 20 -11 l35 -1
-32 -11 c-35 -13 -65 -37 -46 -37 17 0 9 -31 -12 -46 -10 -8 -15 -14 -10 -14
4 0 -4 -11 -18 -24 -14 -13 -23 -27 -19 -31 4 -4 0 -5 -8 -3 -11 2 -14 -5 -13
-24 1 -18 -4 -28 -15 -31 -14 -4 -13 -6 6 -12 23 -8 28 -20 12 -30 -5 -3 -10
-1 -10 4 0 6 -5 11 -11 11 -6 0 -9 -7 -6 -15 8 -18 -38 -55 -69 -55 l-23 0 26
46 c14 25 32 48 40 51 11 4 11 8 3 13 -8 5 -4 15 15 34 14 14 21 26 15 26 -12
0 -13 30 -1 49 8 12 12 10 22 -12 7 -15 17 -27 23 -27 6 0 5 5 -2 12 -7 7 -12
27 -12 46 0 27 8 42 36 68 19 19 43 34 52 34 15 0 15 -2 2 -10z m-420 -338 c9
-4 15 -13 14 -19 -1 -7 -2 -18 -3 -24 0 -5 -14 -15 -31 -20 -16 -6 -30 -15
-30 -21 0 -5 -4 -7 -8 -4 -5 3 -18 -5 -29 -17 -22 -24 -83 -62 -95 -59 -5 1
-8 -3 -8 -9 0 -12 -27 -41 -34 -37 -2 2 -15 -6 -28 -17 -50 -42 -87 -65 -82
-51 3 9 -1 13 -12 13 -9 -1 -19 4 -21 10 -3 9 4 12 21 11 14 -1 26 -6 26 -11
0 -4 5 -5 11 -2 7 5 4 14 -7 26 -17 19 -17 19 7 15 14 -2 23 -9 21 -17 -3 -11
-1 -11 9 -2 10 10 10 18 0 39 -11 24 -10 26 3 15 8 -7 20 -10 26 -6 5 3 10 1
10 -5 0 -6 4 -8 10 -5 6 4 4 16 -6 31 -15 22 -15 24 0 24 10 0 15 -4 12 -9 -3
-5 2 -8 12 -7 9 0 20 9 25 20 5 14 14 17 35 12 22 -5 24 -4 10 4 -20 12 -24
40 -7 40 5 0 7 -5 3 -12 -4 -7 -3 -8 5 -4 6 4 18 3 25 -3 10 -9 17 -7 27 6 13
16 12 17 -2 5 -14 -10 -18 -10 -22 0 -2 7 1 19 8 25 10 10 14 9 19 -3 3 -8 10
-12 16 -9 7 4 6 13 -1 26 -14 27 -6 34 23 18 32 -18 45 -19 45 -3 0 10 -4 11
-14 3 -8 -8 -13 -8 -13 -1 0 6 -3 17 -6 26 -6 17 9 20 36 8z m-140 -222 c-5
-17 -10 -32 -12 -35 -2 -2 6 -11 17 -20 19 -15 17 -16 -27 -10 -30 4 -49 2
-53 -6 -6 -8 -10 -8 -16 2 -6 10 -8 7 -6 -9 1 -18 9 -23 50 -28 56 -8 51 -19
-10 -27 -29 -3 -43 -1 -43 6 0 8 -3 8 -8 2 -12 -17 -42 -17 -48 0 -5 13 -8 14
-18 1 -6 -7 -24 -16 -41 -20 l-30 -6 35 29 c19 16 38 27 41 25 4 -2 9 1 11 7
5 14 140 117 155 118 8 1 9 -8 3 -29z m38 -127 c-5 -25 -123 -111 -171 -124
-67 -18 -144 -20 -161 -3 -16 15 -39 10 -71 -15 -20 -16 -20 -16 -1 7 11 12
25 22 33 22 7 0 18 11 23 25 17 45 61 58 223 69 73 5 97 17 97 48 0 18 1 18
16 4 8 -9 14 -23 12 -33z"/>
<path d="M2920 4923 c-8 -3 -17 -9 -20 -13 -8 -12 -68 -40 -85 -40 -36 0 -50
-20 -46 -68 4 -55 21 -78 76 -103 62 -29 179 -20 160 12 -4 5 0 12 8 15 7 2
14 11 14 19 0 10 -5 11 -18 4 -26 -14 -42 -11 -35 6 4 11 -5 21 -29 32 -51 24
-51 39 0 87 25 24 45 45 45 47 0 7 -53 8 -70 2z"/>
<path d="M2867 4603 c7 -2 15 -20 19 -40 4 -20 15 -44 25 -54 27 -27 24 -35
-26 -83 -51 -50 -61 -71 -14 -31 38 31 49 29 68 -13 16 -35 32 -40 51 -17 7 8
16 12 21 10 13 -8 41 41 49 86 7 40 7 41 -44 78 -66 49 -110 71 -138 70 -13 0
-18 -3 -11 -6z"/>
<path d="M1 3712 l-2 -199 92 -7 c225 -17 372 -64 666 -212 123 -62 225 -109
228 -105 2 5 -7 23 -20 41 -14 19 -23 35 -21 37 2 3 72 -7 156 -21 98 -17 190
-26 260 -26 l109 0 53 -87 c62 -102 84 -147 128 -258 45 -113 121 -288 131
-301 5 -6 10 -19 12 -30 1 -10 7 -25 11 -33 6 -9 5 -12 -1 -8 -6 4 -17 -1 -24
-10 -10 -12 -10 -14 -1 -9 8 5 12 0 12 -16 0 -19 -2 -20 -11 -8 -8 11 -9 8 -4
-15 13 -59 14 -65 3 -65 -5 0 0 -9 13 -20 15 -12 19 -19 10 -20 -11 0 -11 -4
2 -18 10 -10 14 -22 10 -25 -3 -4 -1 -7 5 -7 7 0 12 -9 12 -19 0 -11 5 -23 10
-26 6 -4 8 -11 5 -16 -4 -5 -2 -9 2 -9 5 0 14 -15 21 -32 14 -41 95 -134 131
-153 46 -24 88 -74 113 -138 120 -299 212 -535 234 -602 34 -104 40 -215 14
-267 -21 -44 -16 -51 53 -66 31 -6 61 -7 83 0 19 5 39 6 45 2 6 -3 139 -6 295
-5 273 1 286 0 313 -19 29 -22 67 -27 381 -50 85 -6 214 -18 285 -26 72 -9
165 -18 208 -21 l77 -6 0 754 0 754 -44 16 c-26 9 -50 13 -58 8 -10 -7 -9 -9
5 -9 9 0 17 -4 17 -10 0 -6 -39 -10 -98 -10 -96 0 -99 1 -110 25 -6 14 -20 25
-29 25 -10 0 -24 9 -31 20 -13 21 -12 21 130 16 86 -3 131 -2 113 3 -16 5 -60
9 -97 10 -41 1 -68 5 -68 12 0 5 -4 7 -10 4 -6 -4 -7 1 -3 11 5 14 15 16 66
10 33 -3 79 -6 102 -6 28 0 50 -7 65 -20 33 -29 50 -25 50 10 0 41 -26 49
-120 38 -73 -9 -130 -1 -130 20 0 11 90 32 135 32 19 0 35 6 38 14 8 20 -26
26 -70 14 -20 -5 -50 -7 -67 -4 -17 4 -39 7 -48 7 -14 0 -18 10 -20 42 l-1 42
-4 -36 c-5 -41 -14 -46 -100 -58 -29 -4 -54 -3 -56 2 -1 5 -14 3 -29 -3 -18
-9 -31 -9 -46 -1 -15 8 -23 7 -32 -4 -7 -9 -29 -15 -51 -15 -34 0 -39 3 -39
23 0 50 11 65 56 76 24 6 61 8 82 5 22 -3 64 0 98 9 32 8 97 21 144 28 78 13
82 14 45 20 l-40 5 57 18 c40 12 66 27 84 49 24 30 25 30 19 7 -4 -14 -13 -35
-21 -47 -18 -28 -18 -34 0 -27 27 10 68 85 63 113 -6 27 29 121 44 121 5 0 9
34 9 75 0 73 -1 75 -22 70 -13 -3 -84 -16 -158 -29 -476 -85 -1060 -202 -1108
-222 -30 -12 -47 -41 -203 -359 l-171 -345 -34 0 c-23 0 -34 5 -34 14 0 8 36
108 80 223 44 114 83 222 86 239 5 27 -2 41 -42 95 -51 68 -64 80 -75 73 -15
-9 -79 30 -79 48 0 11 -5 15 -15 12 -11 -5 -15 1 -15 20 0 32 7 33 51 0 19
-14 59 -38 89 -55 30 -16 70 -43 88 -60 37 -35 42 -33 65 27 18 46 15 54 -19
54 -13 0 -44 18 -69 40 -25 22 -54 40 -63 40 -22 1 -42 17 -71 57 -12 18 -34
36 -48 39 -38 10 -106 50 -133 79 -16 17 -26 21 -31 14 -7 -12 -205 -14 -235
-2 -9 3 -19 14 -23 25 -6 16 -13 7 -39 -44 -18 -36 -32 -72 -32 -81 0 -21 -14
-22 -30 -2 -7 8 -19 15 -27 15 -9 0 -13 6 -10 14 23 60 30 100 19 104 -7 2
-12 13 -13 25 0 12 -3 16 -6 9 -7 -19 -23 -4 -23 22 0 13 7 41 16 62 16 39 16
39 -4 21 -13 -12 -28 -16 -45 -12 -14 4 -28 2 -31 -4 -4 -6 -12 -11 -17 -11
-6 0 -8 4 -5 9 4 6 -50 7 -131 4 -76 -2 -145 -4 -153 -4 -8 0 -41 1 -74 1 -47
1 -62 5 -78 23 l-20 22 5 -22 c4 -20 3 -21 -16 -10 -25 14 -47 40 -41 47 3 2
9 -2 14 -10 7 -11 11 -11 24 -1 26 22 18 33 -21 30 -37 -2 -68 7 -128 38 -48
25 -82 32 -94 20 -7 -7 -15 -6 -26 3 -10 8 -15 9 -15 2 0 -7 -15 -11 -35 -10
-19 1 -32 5 -29 9 2 4 0 11 -6 14 -6 4 -9 1 -8 -7 5 -23 -49 -22 -64 1 -8 13
-23 21 -41 21 -15 0 -41 7 -57 15 -17 9 -32 15 -35 15 -27 -1 -35 1 -35 10 0
6 13 10 30 10 l29 0 -20 34 c-15 25 -25 33 -37 28 -15 -5 -15 -4 1 12 14 14
15 21 6 32 -17 20 -28 17 -24 -6 2 -13 -2 -20 -11 -20 -8 0 -14 5 -14 10 0 6
-4 10 -10 10 -5 0 -10 -6 -10 -14 0 -18 -55 -12 -110 11 -32 13 -77 22 -136
26 -14 1 -19 7 -16 19 5 20 39 31 46 14 2 -6 8 -1 12 12 6 21 8 22 30 7 31
-20 33 -19 29 10 -2 20 2 25 19 25 11 0 17 4 11 8 -5 4 -10 13 -11 20 -2 29
-5 33 -14 27 -6 -3 -10 -1 -10 4 0 6 -9 11 -20 11 -11 0 -29 9 -41 21 -23 23
-69 36 -69 19 0 -5 -5 -10 -11 -10 -5 0 -7 5 -4 10 3 6 1 10 -5 10 -6 0 -8 4
-5 10 7 11 -39 25 -54 15 -6 -3 -11 -1 -11 6 0 8 -13 9 -45 5 -44 -7 -55 0
-34 21 7 7 2 9 -18 7 l-28 -4 30 15 c25 12 27 14 10 16 -11 1 -28 1 -39 0 -10
0 -24 3 -31 9 -10 8 -13 -30 -14 -188z m1994 -687 c29 -5 48 -16 71 -43 28
-32 34 -35 48 -23 9 8 18 12 20 10 1 -2 15 -26 30 -53 28 -52 24 -65 -17 -66
-34 0 -8 -17 34 -23 24 -3 46 -12 51 -21 6 -11 17 -14 38 -9 23 4 30 2 30 -10
0 -32 -38 -27 -115 15 -11 6 -52 29 -91 50 -129 70 -249 171 -183 154 13 -3
18 -3 12 0 -23 10 -15 35 10 30 12 -3 40 -8 62 -11z"/>
</g>
</svg>
